PathFileType	4	(X/Y/Z)	/home/abdul/Desktop/myosuite/custom_workspace/IK/output/S3_12_2.trc
DataRate	CameraRate	NumFrames	NumMarkers	Units	OrigDataRate	OrigDataStartFrame	OrigNumFrames
200.0	200.0	50	3	mm	200.0	120	955
Frame#	Time	V_Shoulder			V_Elbow			V_Wrist		
		X1	Y1	Z1	X2	Y2	Z2	X3	Y3	Z3

120	0.595	-131.96065798403959	637.7441541636928	303.61928221084054	-308.3913647200708	445.8248855820202	45.05681268436341	-119.74904179453003	238.16104730153955	46.78941763217451
121	0.6	-131.8257094642582	637.5294018852352	303.7267112314264	-308.0997234164506	445.38178910121997	45.20655544328327	-118.77165894410034	237.66997229229094	46.64859250828779
122	0.605	-131.6887503577428	637.3185800212187	303.8350784875022	-307.8128723478175	444.9497328538527	45.355906874692806	-117.82948953334267	237.17926304992056	46.504831125989256
123	0.61	-131.54988881402525	637.1118599517562	303.9442717035832	-307.53092027666116	444.52887903920225	45.50473516067703	-116.9221954605537	236.68942584057362	46.358358774176146
124	0.615	-131.40923538536563	636.9094080914464	304.0541792735836	-307.2539705022921	444.1193692207969	45.65291609006542	-116.04939524443401	236.20096556161855	46.209417313862495
125	0.62	-131.2669028418123	636.7113856445447	304.1646905109604	-306.98212082769	443.72132454880295	45.800333154754014	-115.21066532512177	235.71438544766255	46.05826594331876
126	0.625	-131.12300598492234	636.5179483714938	304.2756958872569	-306.71546352189944	443.3348460275406	45.94687760216886	-114.40554143295944	235.2301867482645	45.90518187412401
127	0.63	-130.97766146044484	636.3292463673446	304.38708725864313	-306.45408527843654	442.96001482580937	46.09244844521301	-113.63352002310383	234.7488683757815	45.750460912890624
128	0.635	-130.83098757026195	636.1454238525654	304.4987580801218	-306.1980671702797	442.5968926276391	46.23695243125252	-112.89405977388424	234.27092652229393	45.59441794428392
129	0.64	-130.68310408387427	635.9666189767026	304.6106036071371	-305.94748460211264	442.2455220210278	46.38030397189934	-112.1865831465966	233.79685424507431	45.43738731184558
130	0.645	-130.53413204970883	635.7929636353139	304.7225210843915	-305.70240726058387	441.90592692218587	46.52242503553876	-111.5104780041967	233.32714102059646	45.279723094032526
131	0.65	-130.38419360651974	635.6245833005643	304.8344099217451	-305.46289906343	441.57811303277276	46.66324500472561	-110.86509928612126	232.86227226760872	45.121799273792305
132	0.655	-130.23341179514304	635.4615968658317	304.946171857136	-305.2290181083857	441.2620683275926	46.80270050073655	-110.24977073623002	232.40272884031845	44.96400980090553
133	0.66	-130.08191037085848	635.3041165046335	305.0577111065273	-305.00081662287033	440.95776357020657	46.940735177713684	-109.66378668062144	231.94898649324796	44.806768547225296
134	0.665	-129.92981361660313	635.1522475441452	305.16893450094636	-304.7783409154962	440.6651528539222	47.07729948896821	-109.10641385183797	231.5015153198122	44.65050915582612
135	0.67	-129.77724615727257	635.0060883535403	305.27975161074386	-304.5616313304884	440.3841741656295	47.212350428129525	-108.57689325574151	231.06077916714054	44.49568478593176
136	0.675	-129.62433277533754	634.8657302473482	305.390074857256	-304.35072220614154	440.11474996997697	47.3458512479268	-108.07444207711191	230.62723503010272	44.342767756314785
137	0.68	-129.47119822799544	634.7312574039806	305.4998196121107	-304.14564183845823	439.85678781141047	47.477771159474116	-107.5982556198026	230.2013324279062	44.19224909064407
138	0.685	-129.31796706606835	634.6027467995399	305.6089042844654	-303.946412451128	439.61018093163597	47.608085014997656	-107.14750927707968	229.7835127669971	44.04463796899207
139	0.69	-129.16476345485077	634.4802681569844	305.7172503965193	-303.75305017300053	439.3748089001158	47.73677297699425	-106.72136052757688	229.37420869432196	43.900461090395105
140	0.695	-129.0117109971031	634.3638839106866	305.82478264767883	-303.56556502419534	439.1505382552593	47.863820176842964	-106.31895095212224	228.9738434452853	43.76026195198189
141	0.7	-128.85893255837905	634.2536491863775	305.93142896780455	-303.38396091196347	438.9372231540308	47.98921636590747	-105.93940826653268	228.58283019096473	43.62460005074188
142	0.705	-128.70655009486788	634.1496117964376	306.0371205599974	-303.20823563737986	438.73470602776354	48.1129555621651	-105.5818483653333	228.20157138932484	43.49405001449191
143	0.71	-128.55468448392557	634.0518122504517	306.1417919334203	-303.0383809138958	438.5428182420418	48.23503569537946	-105.24537737124156	227.83045814529385	43.369200669012436
144	0.715	-128.40345535746224	633.9602837809103	306.2453809266771	-302.87438239872165	438.36138075858673	48.35545825379765	-104.92909368516197	227.46986958463793	43.250654048661445
145	0.72	-128.25298093834652	633.8750523839017	306.34782872229715	-302.7162197379397	438.1902047971655	48.47422793530015	-104.63209003136683	227.12017224658547	43.13902435803123
146	0.725	-128.1033778799813	633.7961368745993	306.44907985289177	-302.56386662616717	438.0290924956253	48.59135230586243	-104.35345549249378	226.78171950011625	43.034936892390135
147	0.73	-127.95476110920004	633.7235489573195	306.5490821995666	-302.4172908815	437.8778375662419	48.70684146810228	-104.09227752897253	226.45485098874065	42.93902692474775
148	0.735	-127.80724367262673	633.6572933098827	306.6477869831861	-302.27645453637274	437.73622594666375	48.82070774258591	-103.84764397749933	226.13989210845392	42.851938567397326
149	0.74	-127.660936586638	633.5973676819763	306.74514874909005	-302.1413139448626	437.60403644382234	48.93296536445071	-103.61864502321237	225.83715352336029	42.77432361572578
150	0.745	-127.51594869106054	633.5437630071898	306.8411253458696	-302.01181990685797	437.48104136927446	49.043630197772764	-103.40437514028045	225.54693072322544	42.70684038194103
151	0.75	-127.37238650673346	633.4964635283511	306.9356778988061	-301.88791780939346	437.36700716453555	49.15271946996412	-103.2039349957041	225.2695036269367	42.65015252615171
152	0.755	-127.2303540970601	633.4554469357641	307.02877077857096	-301.76954778533445	437.2616950150593	49.260251528328666	-103.01643331123924	225.0051362355292	42.60492789194978
153	0.76	-127.08995293367099	633.4206845179161	307.1203715657771	-301.6566448894705	437.16486145161286	49.3662456207382	-102.84098867849082	224.7540763380806	42.5718373532965
154	0.765	-126.9512817663164	633.39214132419	307.2104510119571	-301.5491392919512	437.07625893789384	49.470721702211435	-102.67673132238463	224.5165552733888	42.55155367910214
155	0.77	-126.81443649710286	633.3697763390895	307.29898299752887	-301.44695648887256	436.9956364433279	49.573700268990294	-102.52280480840898	224.2927877499287	42.54475042142567
156	0.775	-126.67951005918655	633.3535426674546	307.38594448728657	-301.35001752969544	436.9227400000849	49.67520222151031	-102.37836768922531	224.08297172614544	42.55210083270963
157	0.78	-126.54659230003305	633.3433877301146	307.47131548393253	-301.2582392610535	436.8573132434375	49.775248757456964	-102.24259508647235	223.88728835268202	42.574276816913255
158	0.785	-126.41576986935195	633.339253469405	307.55507898014025	-301.171534586386	436.7990979346855	49.87386129588767	-102.11468020383549	223.70590197766484	42.611947918822516
159	0.79	-126.2871261118114	633.3410765639411	307.637220909605	-301.089812740713	436.74783446595535	49.97106143318203	-101.99383576771683	223.5389602156895	42.6657803552057
160	0.795	-126.16074096463774	633.3487886520256	307.7177300975115	-301.01297957975646	436.70326234627714	50.06687093136089	-101.8792953921216	223.3865940806609	42.7364360908562
161	0.8	-126.03669086020238	633.362316563036	307.7965982108097	-300.94093788250245	436.6651206684253	50.161311739090515	-101.77031486467216	223.2489181821541	42.82457196192705
162	0.805	-125.91504863369852	633.3815825561219	307.8738197086554	-300.8735876661992	436.63314855609997	50.25440604546134	-101.66617335096768	223.12603098448096	42.930838848323006
163	0.81	-125.79588343600756	633.4065045655228	307.94939179333204	-300.81082651269185	436.60708559110526	50.34617636640397	-101.56617451482717	223.01801512717242	43.05588089628354
164	0.815	-125.67926065185476	633.4369964517923	308.02331436193464	-300.75254990490737	436.58667222026736	50.436645663378954	-101.46964755228089	222.92493780512734	43.20033479166955
165	0.82	-125.5652418233531	633.4729682582068	308.09558995905047	-300.69865157222955	436.57165014191224	50.52583749375292	-101.37594813751122	222.84685120623428	43.364829083866965
166	0.825	-125.45388457903228	633.5143264716157	308.16622373063365	-300.64902384343236	436.5617626718022	50.613776192053095	-101.28445927928365	222.7837930038526	43.5499835596465
167	0.83	-125.34524256844976	633.5609742869799	308.23522337922805	-300.6035580057869	436.5567550885059	50.70048708107667	-101.19459208675372	222.73578690114033	43.756408665776924
168	0.835	-125.23936540247922	633.6128118748355	308.302599120649	-300.56214466890685	436.55637495824953	50.78599671162164	-101.10578644388067	222.70284322384845	43.9847049786847
169	0.84	-125.1362985993701	633.6697366509093	308.36836364219386	-300.52467413186196	436.5603724393686	50.87033312940358	-101.01751159202456	222.68495955786054	44.23546271898995
